<?xml version="1.0" encoding="utf-8"?>
<!-- Generator: Adobe Illustrator 25.2.3, SVG Export Plug-In . SVG Version: 6.00 Build 0)  -->
<svg version="1.1" id="Logo" xmlns="http://www.w3.org/2000/svg" xmlns:xlink="http://www.w3.org/1999/xlink" x="0px" y="0px"
	 viewBox="0 0 496 367" style="enable-background:new 0 0 496 367;" xml:space="preserve">
<style type="text/css">
	.st0{fill:#F3F7F6;}
</style>
<path class="st0" d="M431.1,63.4H289.6c-6.5,0-11.7-5.3-11.7-11.7V11.3c0-6.5,5.3-11.7,11.7-11.7h141.4c6.5,0,11.7,5.3,11.7,11.7
	v40.4C442.8,58.2,437.6,63.4,431.1,63.4z"/>
<path class="st0" d="M388.5,217.7h-98.9c-6.5,0-11.7-5.2-11.7-11.7v-40.4c0-6.5,5.2-11.7,11.7-11.7h98.9c6.5,0,11.7,5.2,11.7,11.7
	V206C400.3,212.4,395,217.7,388.5,217.7z"/>
<path class="st0" d="M484.2,366.6H289.7c-6.5,0-11.8-5.3-11.8-11.8v-40.2c0-6.5,5.3-11.8,11.8-11.8h194.5c6.5,0,11.8,5.3,11.8,11.8
	v40.2C496,361.3,490.7,366.6,484.2,366.6z"/>
<path class="st0" d="M252.9-0.4h-37.8c-7.2,0-13,5.8-13,13l0,0v141.2h-117c-11.8,0-21.3-9.5-21.3-21.3v-120c0-7.2-5.8-13-13-13H13
	c-7.2,0-13,5.8-13,13v341c0,7.2,5.8,13,13,13l0,0h37.8c7.2,0,13-5.8,13-13l0,0V217.7h117c11.8,0,21.3,9.5,21.3,21.2c0,0,0,0.1,0,0.1
	v114.6c0,7.2,5.8,13,13,13h37.8c7.2,0,13-5.8,13-13v-341C265.9,5.4,260.1-0.4,252.9-0.4z"/>
</svg>
