<svg id="Logo" xmlns="http://www.w3.org/2000/svg" viewBox="0 0 496 367"><rect x="277.91" y="-0.41" width="164.89" height="63.83" rx="11.73" transform="translate(720.72 63) rotate(180)"/><rect x="277.91" y="153.84" width="122.34" height="63.83" rx="11.71" transform="translate(678.17 371.51) rotate(180)"/><rect x="277.91" y="302.78" width="218.09" height="63.83" rx="11.79" transform="translate(773.91 669.38) rotate(180)"/><path d="M252.94-.41h-37.8a13,13,0,0,0-13,13V153.84h-117a21.28,21.28,0,0,1-21.28-21.28V12.6a13,13,0,0,0-13-13H13a13,13,0,0,0-13,13v341a13,13,0,0,0,13,13H50.81a13,13,0,0,0,13-13V217.67h117A21.28,21.28,0,0,1,202.13,239V353.59a13,13,0,0,0,13,13h37.8a13,13,0,0,0,13-13V12.6A13,13,0,0,0,252.94-.41Z"/></svg>