<?xml version="1.0" encoding="utf-8"?>
<!-- Generator: Adobe Illustrator 25.2.3, SVG Export Plug-In . SVG Version: 6.00 Build 0)  -->
<svg version="1.1" id="f73d7767-770b-4972-8520-1e669297afa9"
	 xmlns="http://www.w3.org/2000/svg" xmlns:xlink="http://www.w3.org/1999/xlink" x="0px" y="0px" viewBox="0 0 249.5 250"
	 style="enable-background:new 0 0 249.5 250;" xml:space="preserve">
<style type="text/css">
	.st0{fill:#00A7E1;}
</style>
<path class="st0" d="M224.9,250H24.6C11,250,0,239.9,0,227.4v-12.2c0-12.5,11-22.6,24.6-22.6H225c13.6,0,24.6,10.1,24.6,22.6v12.2
	C249.5,239.9,238.5,250,224.9,250z"/>
<path class="st0" d="M198.2,58.4H24.9C11.1,58.4,0,48,0,35.1V23.3C0,10.4,11.2,0,24.9,0h173.3c13.8,0,24.9,10.4,24.9,23.3v11.8
	C223.1,48,212,58.4,198.2,58.4z"/>
<path class="st0" d="M159.9,153.2H24.7C11,153.2,0,143.4,0,131.3v-11.5c0-12.1,11.1-21.9,24.7-21.9h135.2c13.6,0,24.7,9.8,24.7,21.9
	v11.5C184.6,143.4,173.5,153.2,159.9,153.2z"/>
</svg>
