<svg width="250" height="250" viewBox="0 0 250 250" fill="none" xmlns="http://www.w3.org/2000/svg">
<path d="M224.94 250H24.5664C10.9982 250 0 239.882 0 227.399V215.22C0 202.733 10.9982 192.615 24.5664 192.615H224.935C238.503 192.615 249.501 202.733 249.501 215.215V227.395C249.506 239.882 238.508 250 224.94 250Z" fill="#00A7E1"/>
<path d="M198.164 58.3832H24.8902C11.1427 58.3832 0 47.9537 0 35.086V23.2972C0 10.4296 11.1427 0 24.8902 0H198.159C211.911 0 223.054 10.4296 223.054 23.2972V35.0813C223.054 47.9537 211.911 58.3832 198.164 58.3832Z" fill="#00A7E1"/>
<path d="M159.925 153.193H24.7056C11.0629 153.193 0 143.37 0 131.255V119.743C0 107.628 11.0629 97.8042 24.7056 97.8042H159.925C173.568 97.8042 184.631 107.628 184.631 119.743V131.255C184.631 143.37 173.568 153.193 159.925 153.193Z" fill="#00A7E1"/>
</svg>
