<svg id="f73d7767-770b-4972-8520-1e669297afa9" data-name="Capa 1" xmlns="http://www.w3.org/2000/svg" viewBox="0 0 249.5 250"><defs><style>.b9df0b98-5a74-485b-90c3-921d0dfd4262{fill:#00a7e1;}</style></defs><path class="b9df0b98-5a74-485b-90c3-921d0dfd4262" d="M224.94,250H24.57C11,250,0,239.88,0,227.4V215.22c0-12.49,11-22.6,24.57-22.6H224.93c13.57,0,24.57,10.11,24.57,22.59V227.4C249.51,239.88,238.51,250,224.94,250Z"/><path class="b9df0b98-5a74-485b-90c3-921d0dfd4262" d="M198.16,58.38H24.89C11.14,58.38,0,48,0,35.09V23.3C0,10.43,11.14,0,24.89,0H198.16c13.75,0,24.89,10.43,24.89,23.3V35.08C223.05,48,211.91,58.38,198.16,58.38Z"/><path class="b9df0b98-5a74-485b-90c3-921d0dfd4262" d="M159.93,153.19H24.71C11.06,153.19,0,143.37,0,131.26V119.74C0,107.63,11.06,97.8,24.71,97.8H159.93c13.64,0,24.7,9.83,24.7,21.94v11.52C184.63,143.37,173.57,153.19,159.93,153.19Z"/></svg>